<svg xmlns="http://www.w3.org/2000/svg" viewBox="0 0 64 64">
<style type="text/css">
.st0{fill:#fff;stroke:#333;stroke-width:2;}
.st1{fill:#333;}
.st2{fill:none;}
.st3{fill:#933;}
</style>
<circle class="st0" cx="32" cy="32" r="30"/>
<rect x="16" y="14" class="st1" width="2" height="28"/>
<rect x="10" y="14" class="st1" width="4" height="28"/>
<rect x="22" y="14" class="st1" width="2" height="28"/>
<rect x="30" y="14" class="st1" width="4" height="28"/>
<rect x="40" y="14" class="st1" width="2" height="28"/>
<rect x="46" y="14" class="st1" width="2" height="28"/>
<rect x="50" y="14" class="st1" width="4" height="28"/>
<path class="st3" d="M25.6,56c-0.1-0.2-0.2-0.4-0.3-0.8c-0.5,0.6-1.2,0.9-2,0.9c-0.8,0-1.5-0.2-2-0.7c-0.6-0.5-0.8-1.1-0.8-1.8
c0-0.9,0.3-1.6,1-2.1c0.7-0.5,1.7-0.7,3-0.7h0.8v-0.4c0-0.8-0.3-1.2-1-1.2c-0.6,0-0.9,0.3-0.9,0.9h-2.6c0-0.8,0.3-1.5,1-2
s1.6-0.8,2.7-0.8s1.9,0.3,2.6,0.8c0.6,0.5,0.9,1.2,1,2.2v3.7c0,0.8,0.1,1.4,0.4,1.8V56H25.6z M23.9,54.3c0.3,0,0.6-0.1,0.8-0.2
c0.2-0.1,0.4-0.3,0.5-0.5v-1.4h-0.8c-0.9,0-1.4,0.4-1.4,1.2c0,0.2,0.1,0.4,0.2,0.6C23.5,54.2,23.7,54.3,23.9,54.3z"/>
<path class="st3" d="M37.2,51.8c0,1.4-0.3,2.5-0.9,3.2c-0.6,0.7-1.4,1.1-2.4,1.1c-0.9,0-1.6-0.3-2.1-1L31.7,56h-2.4V44H32v4.2
c0.5-0.6,1.1-0.8,1.9-0.8c1.1,0,1.9,0.4,2.4,1.1c0.6,0.8,0.9,1.8,0.9,3.2V51.8z M34.5,51.7c0-0.8-0.1-1.4-0.3-1.7
c-0.2-0.3-0.5-0.5-1-0.5c-0.6,0-1,0.2-1.2,0.7v3.4c0.2,0.4,0.6,0.7,1.3,0.7c0.6,0,1-0.3,1.2-0.9C34.5,52.9,34.5,52.4,34.5,51.7z"/>
<path class="st3" d="M41.9,54.1c0.4,0,0.7-0.1,0.9-0.3c0.2-0.2,0.3-0.5,0.3-0.8h2.5c0,0.9-0.3,1.7-1,2.3S43,56.2,42,56.2
c-1.2,0-2.2-0.4-2.9-1.2c-0.7-0.8-1.1-1.8-1.1-3.2v-0.1c0-0.9,0.2-1.6,0.5-2.3c0.3-0.7,0.8-1.2,1.4-1.5s1.3-0.5,2.1-0.5
c1.1,0,2,0.3,2.6,0.9s1,1.4,1,2.5h-2.5c0-0.4-0.1-0.8-0.3-1s-0.5-0.4-0.9-0.4c-0.7,0-1.1,0.4-1.2,1.3c0,0.3-0.1,0.7-0.1,1.1
c0,0.8,0.1,1.4,0.3,1.8S41.5,54.1,41.9,54.1z"/>
</svg>