<?xml version="1.0" encoding="utf-8"?>
<!-- Generator: Adobe Illustrator 21.1.0, SVG Export Plug-In . SVG Version: 6.00 Build 0)  -->
<svg version="1.1" id="Layer_1" xmlns="http://www.w3.org/2000/svg" xmlns:xlink="http://www.w3.org/1999/xlink" x="0px" y="0px"
	 viewBox="0 0 256 256" style="enable-background:new 0 0 256 256;" xml:space="preserve">
<style type="text/css">
	.st0{fill:#fff;stroke:#fff;stroke-width:2;stroke-miterlimit:10;}
</style>
<g>
	<path class="st0" d="M227,61h-56.3L155,44h-48L91.3,61H35C21.8,61,7,67.5,7,80.8V107h78.6c8.1-15,24-25.5,42.4-25.5
		S162.3,92,170.4,107H247V80.8C247,67.5,240.2,61,227,61z"/>
	<path class="st0" d="M128,177.5c-17.1,0-32.2-8.5-40.7-22.5H7v21.8C7,189.9,21.8,205,35,205h192c13.2,0,20-15.1,20-28.3V155h-78.3
		C160.2,169,145.1,177.5,128,177.5z"/>
</g>
<ellipse class="st0" cx="128.8" cy="130.3" rx="28.7" ry="28.1"/>
</svg>
